<mxfile host="Electron" modified="2024-04-20T20:19:54.403Z" agent="Mozilla/5.0 (Windows NT 10.0; Win64; x64) AppleWebKit/537.36 (KHTML, like Gecko) draw.io/24.2.5 Chrome/120.0.6099.109 Electron/28.1.0 Safari/537.36" etag="IfjxgM4GfdeMl4Kuv1QT" version="24.2.5" type="device">
  <diagram id="C5RBs43oDa-KdzZeNtuy" name="Page-1">
    <mxGraphModel dx="350" dy="418" grid="1" gridSize="10" guides="1" tooltips="1" connect="1" arrows="1" fold="1" page="1" pageScale="1" pageWidth="827" pageHeight="1169" math="0" shadow="0">
      <root>
        <mxCell id="WIyWlLk6GJQsqaUBKTNV-0" />
        <mxCell id="WIyWlLk6GJQsqaUBKTNV-1" parent="WIyWlLk6GJQsqaUBKTNV-0" />
        <mxCell id="h2u-SrDt5_vJ-jwVtzjv-2" value="" style="edgeStyle=orthogonalEdgeStyle;rounded=0;orthogonalLoop=1;jettySize=auto;html=1;" edge="1" parent="WIyWlLk6GJQsqaUBKTNV-1" source="h2u-SrDt5_vJ-jwVtzjv-0" target="h2u-SrDt5_vJ-jwVtzjv-1">
          <mxGeometry relative="1" as="geometry" />
        </mxCell>
        <mxCell id="h2u-SrDt5_vJ-jwVtzjv-0" value="Read and save year" style="rounded=1;whiteSpace=wrap;html=1;" vertex="1" parent="WIyWlLk6GJQsqaUBKTNV-1">
          <mxGeometry x="353.5" y="10" width="120" height="60" as="geometry" />
        </mxCell>
        <mxCell id="h2u-SrDt5_vJ-jwVtzjv-4" value="" style="edgeStyle=orthogonalEdgeStyle;rounded=0;orthogonalLoop=1;jettySize=auto;html=1;" edge="1" parent="WIyWlLk6GJQsqaUBKTNV-1" source="h2u-SrDt5_vJ-jwVtzjv-1" target="h2u-SrDt5_vJ-jwVtzjv-3">
          <mxGeometry relative="1" as="geometry" />
        </mxCell>
        <mxCell id="h2u-SrDt5_vJ-jwVtzjv-1" value="Calculate day of the week with this formula&lt;div&gt;&lt;div style=&quot;color: rgb(204, 204, 204); background-color: rgb(31, 31, 31); font-family: Consolas, &amp;quot;Courier New&amp;quot;, monospace; font-size: 14px; line-height: 19px; white-space: pre;&quot;&gt;(year + floor((year − 1) / 4) − floor((year − 1) / 100) + floor((year − 1) / 400)) % 7&lt;/div&gt;&lt;/div&gt;" style="whiteSpace=wrap;html=1;rounded=1;" vertex="1" parent="WIyWlLk6GJQsqaUBKTNV-1">
          <mxGeometry x="58" y="120" width="711" height="60" as="geometry" />
        </mxCell>
        <mxCell id="h2u-SrDt5_vJ-jwVtzjv-6" value="" style="edgeStyle=orthogonalEdgeStyle;rounded=0;orthogonalLoop=1;jettySize=auto;html=1;" edge="1" parent="WIyWlLk6GJQsqaUBKTNV-1" source="h2u-SrDt5_vJ-jwVtzjv-3" target="h2u-SrDt5_vJ-jwVtzjv-5">
          <mxGeometry relative="1" as="geometry" />
        </mxCell>
        <mxCell id="h2u-SrDt5_vJ-jwVtzjv-8" value="" style="edgeStyle=orthogonalEdgeStyle;rounded=0;orthogonalLoop=1;jettySize=auto;html=1;" edge="1" parent="WIyWlLk6GJQsqaUBKTNV-1" source="h2u-SrDt5_vJ-jwVtzjv-3" target="h2u-SrDt5_vJ-jwVtzjv-7">
          <mxGeometry relative="1" as="geometry" />
        </mxCell>
        <mxCell id="h2u-SrDt5_vJ-jwVtzjv-3" value="day=0?" style="rhombus;whiteSpace=wrap;html=1;rounded=1;" vertex="1" parent="WIyWlLk6GJQsqaUBKTNV-1">
          <mxGeometry x="347" y="230" width="133.5" height="80" as="geometry" />
        </mxCell>
        <mxCell id="h2u-SrDt5_vJ-jwVtzjv-5" value="Saunday" style="whiteSpace=wrap;html=1;rounded=1;" vertex="1" parent="WIyWlLk6GJQsqaUBKTNV-1">
          <mxGeometry x="140.25" y="240" width="120" height="60" as="geometry" />
        </mxCell>
        <mxCell id="h2u-SrDt5_vJ-jwVtzjv-10" value="" style="edgeStyle=orthogonalEdgeStyle;rounded=0;orthogonalLoop=1;jettySize=auto;html=1;" edge="1" parent="WIyWlLk6GJQsqaUBKTNV-1" source="h2u-SrDt5_vJ-jwVtzjv-7" target="h2u-SrDt5_vJ-jwVtzjv-9">
          <mxGeometry relative="1" as="geometry" />
        </mxCell>
        <mxCell id="h2u-SrDt5_vJ-jwVtzjv-13" value="" style="edgeStyle=orthogonalEdgeStyle;rounded=0;orthogonalLoop=1;jettySize=auto;html=1;" edge="1" parent="WIyWlLk6GJQsqaUBKTNV-1" source="h2u-SrDt5_vJ-jwVtzjv-7" target="h2u-SrDt5_vJ-jwVtzjv-12">
          <mxGeometry relative="1" as="geometry" />
        </mxCell>
        <mxCell id="h2u-SrDt5_vJ-jwVtzjv-7" value="day=1?" style="rhombus;whiteSpace=wrap;html=1;rounded=1;" vertex="1" parent="WIyWlLk6GJQsqaUBKTNV-1">
          <mxGeometry x="347" y="350" width="133.5" height="80" as="geometry" />
        </mxCell>
        <mxCell id="h2u-SrDt5_vJ-jwVtzjv-9" value="Monday" style="whiteSpace=wrap;html=1;rounded=1;" vertex="1" parent="WIyWlLk6GJQsqaUBKTNV-1">
          <mxGeometry x="140.25" y="360" width="120" height="60" as="geometry" />
        </mxCell>
        <mxCell id="h2u-SrDt5_vJ-jwVtzjv-15" value="" style="edgeStyle=orthogonalEdgeStyle;rounded=0;orthogonalLoop=1;jettySize=auto;html=1;" edge="1" parent="WIyWlLk6GJQsqaUBKTNV-1" source="h2u-SrDt5_vJ-jwVtzjv-12" target="h2u-SrDt5_vJ-jwVtzjv-14">
          <mxGeometry relative="1" as="geometry" />
        </mxCell>
        <mxCell id="h2u-SrDt5_vJ-jwVtzjv-17" value="" style="edgeStyle=orthogonalEdgeStyle;rounded=0;orthogonalLoop=1;jettySize=auto;html=1;" edge="1" parent="WIyWlLk6GJQsqaUBKTNV-1" source="h2u-SrDt5_vJ-jwVtzjv-12" target="h2u-SrDt5_vJ-jwVtzjv-16">
          <mxGeometry relative="1" as="geometry" />
        </mxCell>
        <mxCell id="h2u-SrDt5_vJ-jwVtzjv-12" value="day=2?" style="rhombus;whiteSpace=wrap;html=1;rounded=1;" vertex="1" parent="WIyWlLk6GJQsqaUBKTNV-1">
          <mxGeometry x="347" y="470" width="133.5" height="80" as="geometry" />
        </mxCell>
        <mxCell id="h2u-SrDt5_vJ-jwVtzjv-14" value="Tuesday" style="whiteSpace=wrap;html=1;rounded=1;" vertex="1" parent="WIyWlLk6GJQsqaUBKTNV-1">
          <mxGeometry x="140.25" y="480" width="120" height="60" as="geometry" />
        </mxCell>
        <mxCell id="h2u-SrDt5_vJ-jwVtzjv-19" value="" style="edgeStyle=orthogonalEdgeStyle;rounded=0;orthogonalLoop=1;jettySize=auto;html=1;" edge="1" parent="WIyWlLk6GJQsqaUBKTNV-1" source="h2u-SrDt5_vJ-jwVtzjv-16" target="h2u-SrDt5_vJ-jwVtzjv-18">
          <mxGeometry relative="1" as="geometry" />
        </mxCell>
        <mxCell id="h2u-SrDt5_vJ-jwVtzjv-21" value="" style="edgeStyle=orthogonalEdgeStyle;rounded=0;orthogonalLoop=1;jettySize=auto;html=1;" edge="1" parent="WIyWlLk6GJQsqaUBKTNV-1" source="h2u-SrDt5_vJ-jwVtzjv-16" target="h2u-SrDt5_vJ-jwVtzjv-20">
          <mxGeometry relative="1" as="geometry" />
        </mxCell>
        <mxCell id="h2u-SrDt5_vJ-jwVtzjv-16" value="day=3?" style="rhombus;whiteSpace=wrap;html=1;rounded=1;" vertex="1" parent="WIyWlLk6GJQsqaUBKTNV-1">
          <mxGeometry x="347" y="610" width="133.5" height="80" as="geometry" />
        </mxCell>
        <mxCell id="h2u-SrDt5_vJ-jwVtzjv-18" value="Wednsday" style="whiteSpace=wrap;html=1;rounded=1;" vertex="1" parent="WIyWlLk6GJQsqaUBKTNV-1">
          <mxGeometry x="140.25" y="620" width="120" height="60" as="geometry" />
        </mxCell>
        <mxCell id="h2u-SrDt5_vJ-jwVtzjv-23" value="" style="edgeStyle=orthogonalEdgeStyle;rounded=0;orthogonalLoop=1;jettySize=auto;html=1;" edge="1" parent="WIyWlLk6GJQsqaUBKTNV-1" source="h2u-SrDt5_vJ-jwVtzjv-20" target="h2u-SrDt5_vJ-jwVtzjv-22">
          <mxGeometry relative="1" as="geometry" />
        </mxCell>
        <mxCell id="h2u-SrDt5_vJ-jwVtzjv-25" value="" style="edgeStyle=orthogonalEdgeStyle;rounded=0;orthogonalLoop=1;jettySize=auto;html=1;" edge="1" parent="WIyWlLk6GJQsqaUBKTNV-1" source="h2u-SrDt5_vJ-jwVtzjv-20" target="h2u-SrDt5_vJ-jwVtzjv-24">
          <mxGeometry relative="1" as="geometry" />
        </mxCell>
        <mxCell id="h2u-SrDt5_vJ-jwVtzjv-20" value="day=4?" style="rhombus;whiteSpace=wrap;html=1;rounded=1;" vertex="1" parent="WIyWlLk6GJQsqaUBKTNV-1">
          <mxGeometry x="347" y="750" width="133.5" height="80" as="geometry" />
        </mxCell>
        <mxCell id="h2u-SrDt5_vJ-jwVtzjv-22" value="Thursday" style="whiteSpace=wrap;html=1;rounded=1;" vertex="1" parent="WIyWlLk6GJQsqaUBKTNV-1">
          <mxGeometry x="140.25" y="760" width="120" height="60" as="geometry" />
        </mxCell>
        <mxCell id="h2u-SrDt5_vJ-jwVtzjv-27" value="" style="edgeStyle=orthogonalEdgeStyle;rounded=0;orthogonalLoop=1;jettySize=auto;html=1;" edge="1" parent="WIyWlLk6GJQsqaUBKTNV-1" source="h2u-SrDt5_vJ-jwVtzjv-24" target="h2u-SrDt5_vJ-jwVtzjv-26">
          <mxGeometry relative="1" as="geometry" />
        </mxCell>
        <mxCell id="h2u-SrDt5_vJ-jwVtzjv-29" value="" style="edgeStyle=orthogonalEdgeStyle;rounded=0;orthogonalLoop=1;jettySize=auto;html=1;" edge="1" parent="WIyWlLk6GJQsqaUBKTNV-1" source="h2u-SrDt5_vJ-jwVtzjv-24" target="h2u-SrDt5_vJ-jwVtzjv-28">
          <mxGeometry relative="1" as="geometry" />
        </mxCell>
        <mxCell id="h2u-SrDt5_vJ-jwVtzjv-24" value="day=5?" style="rhombus;whiteSpace=wrap;html=1;rounded=1;" vertex="1" parent="WIyWlLk6GJQsqaUBKTNV-1">
          <mxGeometry x="347" y="890" width="133.5" height="80" as="geometry" />
        </mxCell>
        <mxCell id="h2u-SrDt5_vJ-jwVtzjv-26" value="Friday" style="whiteSpace=wrap;html=1;rounded=1;" vertex="1" parent="WIyWlLk6GJQsqaUBKTNV-1">
          <mxGeometry x="140.25" y="900" width="120" height="60" as="geometry" />
        </mxCell>
        <mxCell id="h2u-SrDt5_vJ-jwVtzjv-31" value="" style="edgeStyle=orthogonalEdgeStyle;rounded=0;orthogonalLoop=1;jettySize=auto;html=1;" edge="1" parent="WIyWlLk6GJQsqaUBKTNV-1" source="h2u-SrDt5_vJ-jwVtzjv-28" target="h2u-SrDt5_vJ-jwVtzjv-30">
          <mxGeometry relative="1" as="geometry" />
        </mxCell>
        <mxCell id="h2u-SrDt5_vJ-jwVtzjv-28" value="day=6?" style="rhombus;whiteSpace=wrap;html=1;rounded=1;" vertex="1" parent="WIyWlLk6GJQsqaUBKTNV-1">
          <mxGeometry x="347" y="1050" width="133.5" height="80" as="geometry" />
        </mxCell>
        <mxCell id="h2u-SrDt5_vJ-jwVtzjv-30" value="Saturday" style="whiteSpace=wrap;html=1;rounded=1;" vertex="1" parent="WIyWlLk6GJQsqaUBKTNV-1">
          <mxGeometry x="140.25" y="1060" width="120" height="60" as="geometry" />
        </mxCell>
      </root>
    </mxGraphModel>
  </diagram>
</mxfile>
